<?xml version="1.0" encoding="UTF-8"?>
<!DOCTYPE svg PUBLIC "-//W3C//DTD SVG 1.1//EN" "http://www.w3.org/Graphics/SVG/1.1/DTD/svg11.dtd">
<!-- Creator: CorelDRAW X6 -->
<svg xmlns="http://www.w3.org/2000/svg" xml:space="preserve" width="512px" height="724px" version="1.1" style="shape-rendering:geometricPrecision; text-rendering:geometricPrecision; image-rendering:optimizeQuality; fill-rule:evenodd; clip-rule:evenodd"
viewBox="0 0 512 724"
 xmlns:xlink="http://www.w3.org/1999/xlink">
 <defs>
  <style type="text/css">
   <![CDATA[
    .fil0 {fill:white}
   ]]>
  </style>
 </defs>
 <g id="Слой_x0020_1">
  <metadata id="CorelCorpID_0Corel-Layer"/>
  <g id="_148885840">
   <path class="fil0" d="M2454 1032c-6,0 -19,-4 -24,-5 -49,-10 -82,-22 -127,-44 -13,-7 -14,-6 -17,-11 7,0 16,4 23,6 8,2 13,4 21,7 9,2 14,4 22,7 23,6 71,19 94,19l89 1c41,0 94,-13 133,-24 8,-2 34,-10 41,-10 -5,7 -24,15 -34,20l-27 13c-8,3 -89,22 -95,22l-99 0zm-69 -318c0,-4 14,-12 17,-15 6,-4 13,-8 19,-12 17,-11 35,-16 -7,-16 -15,0 -29,-2 -40,5 -17,12 -26,20 -39,29 -5,3 -9,7 -13,11l-37 31c-13,11 -8,10 -11,35l-9 83c-1,10 -2,33 -5,39 -6,3 -21,6 -30,8 -9,2 -20,5 -30,8 -12,4 -39,19 -47,29 -9,10 3,18 9,24 7,7 13,12 20,17 39,30 72,51 118,71 5,2 7,3 13,5 24,10 88,39 111,40 5,0 14,1 17,1 26,0 121,2 141,-2 9,-2 33,-10 42,-13 18,-6 35,-14 51,-21 10,-4 16,-7 26,-11 23,-9 39,-20 60,-31l32 -21c12,-8 41,-30 48,-43 11,-22 -20,-38 -38,-45l-55 -16c-3,-12 -3,-29 -4,-43l-8 -84c-2,-14 -4,-15 -11,-24l-29 -28c-11,-11 -65,-60 -79,-60l-73 16c-5,1 -9,2 -14,3l-110 28c-14,3 -32,10 -32,1z"/>
   <path class="fil0" d="M2497 1445c6,0 21,-1 24,-3 8,-5 37,-40 42,-40 3,0 2,4 1,6l-57 75c-4,5 -6,10 -10,10 -2,0 -37,-43 -43,-50l-16 -20c-8,-11 -8,-5 -8,-15 6,1 18,11 23,16 16,16 21,21 42,21zm-35 -61c6,-1 13,0 17,-4 4,-3 1,-3 6,-4 9,-3 20,0 30,0l5 6c7,0 16,-2 16,5 0,2 -3,4 -5,4l-64 0c-5,0 -5,-3 -5,-8zm-18 -82c0,-5 1,-4 4,-6 30,-20 42,-3 50,-3 12,0 12,-7 27,-7 16,0 40,14 26,16 -11,1 -11,-2 -21,3 -17,7 -22,5 -42,5 -14,0 -10,-8 -44,-8zm58 -55c19,0 22,-15 29,-20 5,3 3,0 6,6l9 14c15,20 -17,4 -29,10 -3,2 -5,4 -8,6 -16,7 -24,-6 -31,-7 -2,0 -5,0 -8,0 -22,1 -26,5 -17,-13 18,-35 4,4 48,4zm-327 -82c0,-2 3,-15 4,-18 2,-5 4,-9 7,-14 4,-7 17,-19 17,-25 -14,0 -11,1 -17,9 -18,22 -28,53 -17,82 13,34 28,40 39,58 6,9 13,19 20,27 7,7 61,81 72,95 7,9 15,18 20,27 -3,3 -3,5 -7,5 -5,0 -13,-13 -16,-17 -2,-3 -13,-17 -15,-17 -3,0 -67,19 -71,21 2,7 12,13 17,18 12,11 24,24 36,34 7,5 11,11 17,17l189 175c29,27 23,30 48,7 17,-17 34,-34 52,-50l129 -123c1,-1 1,-1 2,-2l43 -42c4,-4 5,-5 9,-8l17 -17c4,-4 6,-4 8,-10l-31 -11c-6,-2 -29,-10 -32,-10 -7,0 -31,34 -38,34 -19,0 11,-31 15,-35l64 -83c3,-5 7,-8 11,-14l32 -41c10,-12 10,-9 22,-27 11,-16 14,-39 8,-59 -5,-18 -12,-37 -32,-43 1,7 11,21 14,29 17,45 3,63 -31,87 -4,3 -10,6 -15,9 -5,3 -9,5 -15,8 -29,11 -73,24 -103,34 -19,7 -30,43 -44,46 1,-9 15,-31 20,-40 15,-28 10,-24 27,-32l44 -16c4,-2 4,-5 4,-11 0,-3 1,-9 2,-13 2,-16 3,-34 0,-50 -1,-7 -3,-10 -11,-10 -15,0 -21,8 -47,11 -8,1 -18,2 -26,3 -17,1 -22,4 -40,1 -45,-8 -49,-19 -76,-27 -10,-3 -65,29 -86,29 -15,0 -59,-5 -74,-8 -27,-5 -37,-13 -39,16 -1,11 -1,20 0,33 1,8 -1,23 7,28l22 14c9,6 25,12 33,21 8,9 13,23 19,33 4,7 11,15 11,24 -11,-6 -24,-26 -34,-36 -19,-20 -5,-11 -46,-25 -12,-4 -22,-7 -34,-12 -32,-11 -38,-10 -67,-27 -4,-2 -4,-2 -7,-4 -6,-5 -13,-11 -18,-17 -12,-14 -14,-25 -14,-43z"/>
   <path class="fil0" d="M2295 975c1,1 3,2 4,3 2,1 2,1 4,2 3,2 5,3 9,4 16,8 40,18 56,24l42 12c8,2 14,3 22,5 6,1 16,4 22,4l97 0c8,0 90,-19 102,-25 7,-4 45,-20 49,-26 -6,0 -14,4 -20,5 -33,9 -67,18 -101,24 -8,1 -13,3 -22,3l-89 1c-3,0 -8,-1 -13,-1 -17,0 -19,1 -36,-3 -34,-7 -49,-9 -85,-20 -7,-2 -13,-4 -20,-6 -4,-2 -16,-5 -20,-6z"/>
   <path class="fil0" d="M2549 1426c3,-4 6,-7 8,-11 7,-10 6,-4 6,-12 -7,5 -21,20 -28,27 -14,14 -11,16 -38,16 -22,0 -24,-2 -39,-15l-26 -22c0,5 1,4 4,7l33 41c6,7 23,30 30,34l49 -66z"/>
   <path class="fil0" d="M2450 1253c0,4 15,1 26,1 10,0 17,16 33,6 4,-3 4,-5 9,-6 11,-2 37,7 27,-5 -5,-6 -11,-20 -15,-20 -1,0 -8,11 -11,13 -10,8 -35,6 -44,0 -5,-4 -8,-9 -13,-13 -2,3 -12,20 -12,24z"/>
   <path class="fil0" d="M2444 1300c11,0 16,-1 24,2 22,7 39,9 61,0 8,-3 14,-2 24,-2 -7,-10 -24,-16 -41,-11 -9,3 -4,4 -17,4 -6,0 -17,-14 -39,-1 -4,2 -9,4 -12,8z"/>
   <path class="fil0" d="M2463 1385c1,3 1,5 5,5l61 0c3,0 3,-1 5,-3 -4,-6 -6,-4 -16,-4l-5 -6c-10,0 -19,-3 -27,0 -5,2 -2,1 -6,4 -4,3 -11,2 -17,4z"/>
  </g>
 </g>
</svg>
