<?xml version="1.0" encoding="UTF-8"?>
<!DOCTYPE svg PUBLIC "-//W3C//DTD SVG 1.1//EN" "http://www.w3.org/Graphics/SVG/1.1/DTD/svg11.dtd">
<!-- Creator: CorelDRAW X6 -->
<svg xmlns="http://www.w3.org/2000/svg" xml:space="preserve" width="192px" height="192px" version="1.1" style="shape-rendering:geometricPrecision; text-rendering:geometricPrecision; image-rendering:optimizeQuality; fill-rule:evenodd; clip-rule:evenodd"
viewBox="0 0 192 272"
 xmlns:xlink="http://www.w3.org/1999/xlink">
 <defs>
  <style type="text/css">
   <![CDATA[
    .fil0 {fill:white}
   ]]>
  </style>
 </defs>
 <g id="Слой_x0020_1">
  <metadata id="CorelCorpID_0Corel-Layer"/>
  <g id="_148884464">
   <path class="fil0" d="M920 387c-2,0 -7,-1 -9,-2 -19,-4 -31,-8 -48,-17 -5,-3 -5,-2 -6,-4 3,0 6,2 9,2 3,1 5,2 8,2 3,1 5,2 8,2 9,2 27,7 35,7l33 0c15,0 35,-5 50,-9 3,-1 13,-4 15,-4 -2,3 -9,6 -13,8l-10 5c-3,1 -33,8 -36,8l-37 0zm-26 -119c0,-1 5,-5 6,-5 2,-2 5,-3 7,-4 6,-4 13,-6 -2,-6 -6,0 -11,-1 -15,2 -7,4 -10,8 -15,11 -2,1 -3,3 -5,4l-14 12c-5,4 -3,4 -4,13l-3 31c0,4 -1,12 -2,15 -2,1 -8,2 -11,3 -4,1 -8,2 -11,3 -5,2 -15,7 -18,11 -3,4 1,7 3,9 2,2 5,4 8,7 15,11 27,19 44,26 2,1 3,1 5,2 9,4 33,14 42,15 2,0 5,0 6,0 10,0 45,1 53,-1 3,-1 12,-4 16,-5 7,-2 13,-5 19,-8 4,-2 6,-3 10,-4 9,-3 15,-7 22,-11l12 -8c5,-3 15,-11 18,-16 4,-8 -8,-14 -14,-17l-21 -6c-1,-4 -1,-11 -2,-16l-3 -32c-1,-5 -1,-6 -4,-9l-11 -11c-4,-4 -24,-22 -30,-22l-27 6c-2,0 -3,1 -5,1l-41 11c-5,1 -12,4 -12,0z"/>
   <path class="fil0" d="M936 542c2,0 8,0 9,-1 3,-2 14,-15 16,-15 1,0 1,2 0,2l-21 28c-2,2 -2,4 -4,4 -1,0 -14,-16 -16,-19l-6 -8c-3,-4 -3,-2 -3,-5 2,0 7,4 9,6 6,6 8,8 16,8zm-13 -23c2,-1 5,0 6,-1 1,-1 0,-1 2,-2 3,-1 7,0 11,0l2 2c3,0 6,-1 6,2 0,1 -1,1 -2,1l-24 0c-2,0 -2,-1 -2,-3zm-7 -31c0,-2 0,-2 2,-2 11,-7 16,-1 19,-1 4,0 5,-2 10,-2 6,0 15,5 10,6 -4,0 -4,-1 -8,1 -6,3 -8,2 -16,2 -5,0 -4,-3 -17,-3zm22 -21c7,0 8,-6 11,-7 2,1 1,0 2,2l4 5c5,8 -6,1 -11,4 -1,1 -2,2 -3,2 -6,3 -9,-2 -12,-3 -1,0 -2,0 -3,0 -8,1 -10,2 -6,-5 7,-13 2,1 18,1zm-123 -31c0,-1 1,-6 2,-7 1,-2 2,-3 3,-5 2,-3 6,-7 6,-9 -5,0 -4,0 -6,3 -7,8 -11,20 -6,31 5,13 10,15 15,22 2,3 5,7 8,10 3,3 23,30 27,36 3,3 5,7 7,10 -1,1 -1,2 -2,2 -2,0 -5,-5 -6,-6 -1,-1 -5,-6 -6,-6 -1,0 -25,7 -26,8 1,3 4,5 6,7 4,4 9,9 14,13 2,2 4,4 7,6l71 66c11,10 9,11 18,2 7,-6 13,-13 20,-19l49 -46c0,0 0,0 1,-1l16 -16c1,-1 2,-2 3,-3l6 -6c2,-1 2,-1 3,-4l-12 -4c-2,-1 -11,-4 -12,-4 -3,0 -12,13 -14,13 -7,0 4,-12 6,-13l24 -31c1,-2 3,-3 4,-5l12 -15c4,-5 4,-4 8,-10 4,-6 5,-15 3,-22 -2,-7 -4,-14 -12,-16 0,2 4,8 5,11 7,17 1,24 -12,33 -2,1 -4,2 -5,3 -2,1 -3,2 -5,3 -11,4 -27,9 -39,13 -7,2 -11,16 -17,17 0,-3 6,-12 8,-15 6,-10 4,-9 10,-12l16 -6c1,-1 1,-2 2,-4 0,-1 0,-3 1,-5 1,-6 1,-13 0,-19 -1,-3 -1,-4 -4,-4 -6,0 -8,3 -18,4 -3,0 -7,1 -10,1 -7,0 -8,1 -15,0 -17,-3 -18,-7 -29,-10 -4,-1 -24,11 -32,11 -6,0 -22,-2 -28,-3 -10,-2 -14,-5 -14,6 0,4 0,8 0,12 0,3 0,9 3,11l8 5c3,2 9,5 12,8 3,3 5,9 7,13 1,3 4,5 4,9 -4,-2 -9,-10 -13,-14 -7,-7 -2,-4 -17,-9 -4,-1 -8,-3 -13,-4 -12,-4 -14,-4 -25,-10 -1,-1 -1,-1 -3,-2 -2,-2 -5,-4 -7,-6 -4,-5 -5,-9 -5,-16z"/>
   <path class="fil0" d="M861 366c1,0 1,1 2,1 1,0 1,1 2,1 1,1 2,1 3,2 6,3 15,7 21,9l16 4c3,1 5,1 8,2 2,0 6,2 8,2l36 0c3,0 34,-7 38,-9 3,-1 17,-8 18,-10 -2,0 -5,1 -7,2 -12,3 -25,7 -38,9 -3,0 -5,1 -8,1l-33 0c-1,0 -3,-1 -5,-1 -6,0 -7,0 -14,-1 -13,-3 -18,-3 -32,-8 -3,-1 -5,-1 -8,-2 -2,-1 -6,-2 -8,-2z"/>
   <path class="fil0" d="M956 535c1,-1 2,-3 3,-4 3,-4 2,-2 2,-4 -3,2 -8,8 -10,10 -5,5 -4,6 -14,6 -8,0 -9,-1 -15,-6l-10 -8c0,2 0,1 1,3l13 15c2,3 9,11 11,13l18 -25z"/>
   <path class="fil0" d="M919 470c0,2 6,0 10,0 4,0 6,6 12,2 1,-1 2,-2 3,-2 4,-1 14,3 10,-2 -2,-2 -4,-7 -6,-7 -1,0 -3,4 -4,5 -4,3 -13,2 -16,0 -2,-1 -3,-3 -5,-5 -1,1 -4,8 -4,9z"/>
   <path class="fil0" d="M917 487c4,0 6,0 9,1 8,3 14,3 23,0 3,-1 5,-1 9,-1 -2,-4 -9,-6 -15,-4 -3,1 -1,2 -6,2 -2,0 -6,-5 -15,-1 -2,1 -3,2 -4,3z"/>
   <path class="fil0" d="M924 519c0,1 0,2 2,2l23 0c1,0 1,0 2,-1 -1,-2 -2,-1 -6,-1l-2 -2c-4,0 -7,-1 -10,0 -2,1 -1,1 -2,2 -2,1 -4,1 -6,1z"/>
  </g>
 </g>
</svg>
